<?xml version="1.0" encoding="UTF-8"?>
<svg id="uuid-9df816f2-8391-4faf-8256-c502de4bcb91" data-name="Layer 1" xmlns="http://www.w3.org/2000/svg" xmlns:xlink="http://www.w3.org/1999/xlink" viewBox="0 0 500 500">
  <defs>
    <style>
      .uuid-d098d951-2049-4ed5-8c1e-d57eca6a28b9 {
        fill: #2e2c31;
      }

      .uuid-d098d951-2049-4ed5-8c1e-d57eca6a28b9, .uuid-fd9e53e7-3b69-401a-95c0-e23f0f43acf1 {
        stroke-width: 0px;
      }

      .uuid-d9d092db-6a54-4d6d-8ca1-806c3a9a7e12 {
        fill: none;
        stroke: #2e2c31;
        stroke-miterlimit: 10;
        stroke-width: 8px;
      }

      .uuid-fd9e53e7-3b69-401a-95c0-e23f0f43acf1 {
        fill: url(#uuid-0916d03a-59c3-4e31-a3b9-c67b0d74c5af);
      }
    </style>
    <linearGradient id="uuid-0916d03a-59c3-4e31-a3b9-c67b0d74c5af" x1="248.09" y1="135.38" x2="257.92" y2="625.13" gradientUnits="userSpaceOnUse">
      <stop offset="0" stop-color="#5bc1a1"/>
      <stop offset="1" stop-color="#438c90"/>
    </linearGradient>
  </defs>
  <g id="uuid-7bb9af91-c92d-490b-a940-f10d4bb6e2a3" data-name="Logo">
    <path class="uuid-fd9e53e7-3b69-401a-95c0-e23f0f43acf1" d="M500,239.29C495.12,110.15,392.34,6.08,263.73-.83h-27.26C112.1,5.85,11.89,103.4,1,226.61v44.58c10.69,120.98,107.5,217.21,228.74,226.98h40.71c125.45-10.11,224.75-112.78,229.54-239.66v-19.23Z"/>
    <rect class="uuid-d9d092db-6a54-4d6d-8ca1-806c3a9a7e12" x="217.31" y="227.04" width="32.06" height="67.25" rx="4.19" ry="4.19" transform="translate(252.66 -88.64) rotate(45)"/>
    <path class="uuid-d098d951-2049-4ed5-8c1e-d57eca6a28b9" d="M320,85.06h0c6.62,0,11.99,5.37,11.99,11.99v165.88h-23.99V97.06c0-6.62,5.37-11.99,11.99-11.99Z" transform="translate(216.76 -175.31) rotate(45)"/>
    <path class="uuid-d098d951-2049-4ed5-8c1e-d57eca6a28b9" d="M212.3,320.17c2.22,23.85-16.02,41.06-39.17,47.2-13.83,3.67-25.3,25.7-34.14,16.49-6.55-6.83-12.12-45.51-13.06-55.66-2.22-23.85,15.32-44.98,39.17-47.2,23.85-2.22,44.98,15.32,47.2,39.17Z"/>
    <path class="uuid-d098d951-2049-4ed5-8c1e-d57eca6a28b9" d="M459.23,386.07H40.98c1.78,2.7,3.6,5.37,5.47,8h407.29c1.88-2.63,3.71-5.3,5.49-8Z"/>
  </g>
</svg>